<?xml version="1.0" encoding="UTF-8" standalone="no"?>
<svg version="1.1" width="180" height="180" xmlns="http://www.w3.org/2000/svg">
  <g id="circles" transform="translate(-46,-10)">
    <path id="large-circle" fill="#C3C4C3" d="m 39.626953,-148.00195 a 24.673203,24.640497 0 0 1 2.183594,-0.10157 24.673203,24.640497 0 0 1 4.181641,0.39649 c 6.418231,-16.34837 19.205682,-29.19839 35.109374,-35.19727 a 24.673203,24.640497 0 0 1 -2.607421,-5.50586 c -17.916228,6.93672 -32.146196,21.76965 -38.867188,40.40821 z m 0.207031,49.039059 c 9.53638,25.772692 33.474316,44.140625 61.568356,44.140625 28.19681,0 52.21049,-18.500716 61.67578,-44.421875 a 24.836334,24.640497 0 0 1 -4.25,0.404297 24.836334,24.640497 0 0 1 -2.33007,-0.164062 c -9.15978,22.441978 -30.39855,38.097656 -55.09571,38.097656 -24.792427,0 -46.103711,-15.774378 -55.205074,-38.355469 a 24.673203,24.640497 0 0 1 -4.386719,0.439453 24.673203,24.640497 0 0 1 -1.976563,-0.140625 z m 44.011719,-80.501949 a 24.673203,24.640497 0 0 0 0.822266,0.82031 24.673203,24.640497 0 0 1 -0.822266,-0.82031 z m 3.589844,3.14257 a 24.673203,24.640497 0 0 0 0.710937,0.53125 24.673203,24.640497 0 0 1 -0.710937,-0.53125 z m 4.568359,2.62891 a 24.673203,24.640497 0 0 0 0.876953,0.32813 24.673203,24.640497 0 0 1 -0.876953,-0.32813 z m 4.271485,1.375 a 24.673203,24.640497 0 0 0 1.179687,0.25586 24.673203,24.640497 0 0 1 -1.179687,-0.25586 z m 9.910159,0.25781 a 24.673203,24.640497 0 0 0 1.08203,-0.23437 24.673203,24.640497 0 0 1 -1.08203,0.23437 z m 4.55664,-1.29492 a 24.673203,24.640497 0 0 0 0.77148,-0.28711 24.673203,24.640497 0 0 1 -0.77148,0.28711 z m 4.74023,-2.41797 a 24.673203,24.640497 0 0 0 0.28906,-0.21679 24.673203,24.640497 0 0 1 -0.28906,0.21679 z m 3.46485,-2.83398 a 24.673203,24.640497 0 0 0 0.62304,-0.6211 24.673203,24.640497 0 0 1 -0.62304,0.6211 z m 3.41406,-4.04297 c 15.49665,6.0626 27.96387,18.65369 34.33203,34.62695 a 24.836334,24.640497 0 0 1 2.13476,-0.0957 24.836334,24.640497 0 0 1 4.47657,0.45312 c -6.57848,-18.53971 -20.58382,-33.34298 -38.25977,-40.4414 a 24.673203,24.640497 0 0 1 -2.68359,5.45703 z" transform="rotate(90)" />
    <path id="top-half-1" fill="#C3C4C3" d="m 17.525391,-120.41992 a 24.673203,24.640497 0 0 0 22.30664,21.457029 24.673203,24.640497 0 0 0 0.002,0 24.673203,24.640497 0 0 0 1.976563,0.140625 24.673203,24.640497 0 0 0 4.386719,-0.439453 24.673203,24.640497 0 0 0 0.0078,-0.002 24.673203,24.640497 0 0 0 19.917969,-21.156251 z" transform="rotate(90)" />
    <path id="top-half-2" fill="#C3C4C3" d="M 17.53125,-126.60938 H 66.109375 A 24.673203,24.640497 0 0 0 46,-147.70508 a 24.673203,24.640497 0 0 0 -0.0078,-0.002 24.673203,24.640497 0 0 0 -4.181641,-0.39649 24.673203,24.640497 0 0 0 -2.183594,0.10157 24.673203,24.640497 0 0 0 -22.095703,21.39257 z" transform="rotate(90)" />
    <path id="right-half-1" fill="#C3C4C3" d="m 77.486328,-192.48047 a 24.673203,24.640497 0 0 0 1.007813,4.07031 24.673203,24.640497 0 0 0 2.607421,5.50586 24.673203,24.640497 0 0 0 3.640626,4.33399 24.673203,24.640497 0 0 0 0.509765,0.50976 24.673203,24.640497 0 0 0 4.376953,3.14649 24.673203,24.640497 0 0 0 0.84375,0.46094 24.673203,24.640497 0 0 0 4.996094,1.95898 24.673203,24.640497 0 0 0 0.785156,0.16992 24.673203,24.640497 0 0 0 5.572264,0.69922 24.673203,24.640497 0 0 0 5.53711,-0.69141 24.673203,24.640497 0 0 0 0.72461,-0.1582 24.673203,24.640497 0 0 0 5.04297,-1.95312 24.673203,24.640497 0 0 0 0.68945,-0.375 24.673203,24.640497 0 0 0 4.52149,-3.19922 24.673203,24.640497 0 0 0 0.21875,-0.21875 24.673203,24.640497 0 0 0 3.79883,-4.42578 24.673203,24.640497 0 0 0 0.002,-0.004 24.673203,24.640497 0 0 0 2.68359,-5.45703 24.673203,24.640497 0 0 0 1.10742,-4.37305 z" transform="rotate(90)" />
    <path id="right-half-2" fill="#848383" d="m 77.376953,-199.41016 h 48.896487 a 24.673203,24.640497 0 0 0 0,-0.008 24.673203,24.640497 0 0 0 -1.36133,-5.36328 24.673203,24.640497 0 0 0 -0.23242,-0.625 24.673203,24.640497 0 0 0 -2.53907,-4.76953 24.673203,24.640497 0 0 0 -0.33203,-0.44531 24.673203,24.640497 0 0 0 -8.20312,-7.22461 24.673203,24.640497 0 0 0 -0.69141,-0.37696 24.673203,24.640497 0 0 0 -4.90234,-1.85156 24.673203,24.640497 0 0 0 -0.83789,-0.18359 24.673203,24.640497 0 0 0 -5.34766,-0.64844 24.673203,24.640497 0 0 0 -24.449217,21.49609 z" transform="rotate(90)" />
    <path id="bottom-half-1" fill="#C3C4C3" d="m 134.38086,-120.41992 a 24.836334,24.640497 0 0 0 22.11328,21.414061 24.836334,24.640497 0 0 0 0.004,0.002 24.836334,24.640497 0 0 0 2.33007,0.164062 24.836334,24.640497 0 0 0 4.25,-0.404297 24.836334,24.640497 0 0 0 0.002,0 24.836334,24.640497 0 0 0 20.21875,-21.175776 z" transform="rotate(90)" />
    <path id="bottom-half-2" fill="#C3C4C3" d="m 134.38477,-126.60938 h 48.90625 a 24.836334,24.640497 0 0 0 -19.98438,-21.05664 24.836334,24.640497 0 0 0 -0.002,0 24.836334,24.640497 0 0 0 -4.47657,-0.45312 24.836334,24.640497 0 0 0 -2.13476,0.0957 24.836334,24.640497 0 0 0 -22.30859,21.41406 z" transform="rotate(90)" />
  </g>
</svg>