<?xml version="1.0" encoding="UTF-8" standalone="no"?>
<svg
        viewBox="0 0 374 329"
        version="1.1"
        id="svg8"
        width="374"
        height="329"
        xmlns="http://www.w3.org/2000/svg"
        xmlns:svg="http://www.w3.org/2000/svg"
        xmlns:rdf="http://www.w3.org/1999/02/22-rdf-syntax-ns#"
        xmlns:cc="http://creativecommons.org/ns#"
        xmlns:dc="http://purl.org/dc/elements/1.1/">
   <defs
           id="defs12" />
   <title
           id="title2">NIH Intramural Research Program: Our Research Changes Lives</title>
   <metadata
           id="metadata5867">
      <rdf:RDF>
         <cc:Work
                 rdf:about="">
            <dc:title>NIH Intramural Research Program: Our Research Changes Lives</dc:title>
         </cc:Work>
      </rdf:RDF>
   </metadata>
   <g
           id="g_center"
           transform="translate(0, 50)"> <!-- Adjust this value as needed -->
      <g
              id="g293534"
              style="display:inline"
              transform="translate(66.936798,431.56897)">
         <g
                 id="g23279"
                 transform="matrix(2.2457257,0,0,2.2144497,-30.271816,-431.43103)">
            <path
                    d="m 111.00886,95.3 26.1,-47.7 -26,-47.6 h 6.5 c 3.6,0 7.9,2.6 9.6,5.7 l 22.8,41.9 -22.9,41.9 c -1.7,3.2 -6.1,5.7 -9.6,5.7 h -6.5 z"
                    fill="#20558a"
                    id="path4"
                    style="display:inline" />
            <path
                    id="path22970"
                    d="M 8.6992188,0 C 3.8992188,0 0,3.9007812 0,8.8007812 V 86.5 c 0,4.8 3.8992188,8.800781 8.6992188,8.800781 H 104.5 L 130.59961,47.599609 104.5,0 Z m 5.9003902,26.400391 h 7.800782 l 19.199218,31.40039 h 0.09961 v -31.40039 h 7 V 69 H 40.900391 L 21.800781,37.699219 H 21.599609 V 69 h -7 z m 41.400391,0 h 7.400391 V 69 H 63.300781 56 Z m 14.699219,0 h 7.40039 v 16.90039 h 19.201172 v -16.90039 h 7.298829 V 69 H 97.199219 V 49.800781 H 78.099609 V 69 h -7.40039 z"
                    style="fill:#616265" />
         </g>
      </g>
   </g>
</svg>
