<svg version="1.1" id="Layer_1" xmlns="http://www.w3.org/2000/svg" xmlns:xlink="http://www.w3.org/1999/xlink" x="0px" y="0px" viewBox="0 0 417.8 72" xml:space="preserve">
 <g>
  <path fill="#003087" d="M57.6,36c0,19.9-12.9,36-28.8,36C12.9,72,0,55.9,0,36S12.9,0,28.8,0C44.7,0,57.6,16.1,57.6,36">
  </path>
  <path fill="#FFFFFF" d="M28.8,4.2C15.1,4.2,4.1,18.5,4.1,36c0,17.6,11.1,31.9,24.7,31.9c13.6,0,24.7-14.3,24.7-31.9
		C53.5,18.5,42.4,4.2,28.8,4.2 M28.8,69.5c-14.5,0-26.3-15-26.3-33.4c0-18.4,11.8-33.4,26.3-33.4c14.5,0,26.3,15,26.3,33.4
		C55.1,54.5,43.3,69.5,28.8,69.5">
  </path>
  <path fill="#FFFFFF" d="M36.5,13.2v0.1c-0.6,0.2-1.3,0.4-2,0.6c-0.2,0-0.4,0.1-0.4,0.2v0.1c0.9,0.6,1.9,1.4,2.9,1.9
		c0-0.8-0.1-1.7-0.1-2.5l0.1-0.1c2.1,1.2,4,2.4,6.2,3.6v0.2c-1,0.4-2.2,0.7-3.1,1.3c-2.1-1-4.1-2.5-6-3.8c-1.5-1.1-3.1-2.3-4.5-3.5
		c-0.1-0.2,0.1-0.3,0.2-0.4c0-1,0.2-2,0.2-3.1l0.4,0.2L36.5,13.2z">
  </path>
  <path fill="#FFFFFF" d="M37.8,11.3c1.8,1.6,3.3,3.1,5,5c-3.1-1.5-6.1-3.3-8.8-5.8c-1-0.9-2-1.7-2.9-2.6h0.2L37.8,11.3z">
  </path>
  <path fill="#FFFFFF" d="M29.3,12.3c3.1,2.5,6.4,5,9.8,6.9c0.1,0.1,0.2,0.4,0.1,0.6c-0.2,0.2-0.6-0.1-0.8-0.1c-3.2-2-6.5-4.2-9.4-6.6
		c-0.2-0.2-0.2-0.5-0.1-0.7C28.9,12.3,29.1,12.3,29.3,12.3">
  </path>
  <path fill="#FFFFFF" d="M31.4,20.4c-0.9-0.2-1.8-0.7-2.2-1.4c-0.1-0.1-0.1-0.4,0.1-0.4c0.9,0.9,2.2,1.4,3.4,1.3
		c0.1,0.1,0.4,0.2,0.2,0.4c-0.2,0.1-0.5,0.1-0.7,0.2c0.5,1,1.7,1.3,2.6,1.6c0.1,0.2-0.1,0.2-0.2,0.2C33.4,22.3,32,21.7,31.4,20.4
		 M33.7,20.2c1,0.4,2,0.9,3.1,0.6c0.3,0,0.5,0.1,0.5,0.3c0,0.2-0.1,0.4-0.3,0.4c-1.3,0.2-2.3-0.6-3.3-1.2L33.7,20.2z M45.6,36.6
		c-0.1-2.7-2.8-3.6-4.3-5.2c-0.4-0.3-0.7,0.2-1.1,0.1c-0.7-0.4,0.4-0.4,0.4-0.9c-0.6-0.8-0.6-1.9-1.2-2.7c-0.4-0.2-0.6,0.2-1,0
		c-0.2-1.3-0.6-2.6-1.2-3.7c-1.4-0.9-1.4,1.4-2.6,1.3c0-0.1-0.1-0.1-0.1-0.2c0-0.2,0.3-0.2,0.4-0.4c0.3-0.2,0.3-0.8,0.3-1.2
		c-0.2-0.4-0.7-0.4-1.1-0.4c-0.2,0-0.3-0.2-0.2-0.5c0.4-0.6,1-0.1,1.6-0.1c0.6-0.4,1.2-0.2,1.8-0.5c0.5-0.2,0.6-0.6,0.6-1.1
		c0.2-0.1,0.4,0.1,0.6-0.1c0-0.3-0.1-0.7-0.2-0.9c-2-1.1-3.6-3-6-3.7c-0.4-0.2-1.2,0.1-1-0.6c-0.2-0.7-1.1-0.7-1.7-0.9
		c-0.1-0.2-0.1-0.4,0.1-0.5c0.1-0.1,0.1-0.2-0.1-0.4c-0.7-0.2-1-1.1-1.4-1.7c-0.4-0.3-1-0.5-1.5-0.4c-1.2,0-1.3,1.6-2,2.3
		c-0.2,0.5-0.8,0.8-0.8,1.5c0.3,0.9,1.5,1,2.4,1.2c0.4-0.1,0.9,0.1,1-0.2c0.1-0.2-0.1-0.2-0.2-0.2c-0.3-0.1-0.4-0.4-0.3-0.7
		c0.2-0.2,0.5-0.3,0.8-0.3c0.5,0.4,0.9-0.2,1.4-0.1c0.5,0.1,0.7,0.6,0.8,1c-0.6-0.1-1.2-0.4-1.8-0.2c-0.2,0.3,0,0.6,0.1,0.9
		c0.4-0.1,0.9-0.1,1.3-0.2c0.2,0,0.5,0.1,0.6,0.4c1.2,0.2,2.6,0.2,3.6,1c0,0.4,0.6,0.7,0.2,1c-1.2-1.2-2.9-1.4-4.5-1
		c-0.3-0.2,0.1-0.6-0.2-0.7c-1,0.2-1.9,0.6-2.9,1l-0.1-0.1c0.1-0.2,0-0.3,0.1-0.4c-0.2-0.1-0.4-0.3-0.7-0.3
		c-0.4,0.7,0.3,1.5,0.2,2.2c0.3,0.8,0.7-0.2,1.2-0.1c0.4,0,0.9-0.3,1.2,0.1c-0.5,0.2-1,0.3-1.4,0.7c-0.1,0.2,0.1,0.3,0.1,0.4
		c0.4,0.6,1.3,0.2,1.8,0.5c0,0.1-0.1,0.2-0.2,0.4c-0.7,0.1-1.1,0.7-1.5,1.2c-0.4-0.1-0.2-0.6-0.3-0.8c-0.1-0.3-0.4-0.3-0.6-0.3
		c-0.2,0.8-0.5,1.5-0.6,2.2c0.1,0.5,0.7,0.3,1,0.4c0.5,0.1,0.2,0.7,0.4,1c0.4,0.1,1,0.1,1.5,0c0.1,0.1,0.1,0.2,0.1,0.4
		c-0.2,0.3-0.5,0.4-0.8,0.4c-0.1,0.1-0.4,0.3-0.2,0.6c0.8,0.4-0.1,1.6,0.7,2c0.8,0.4,2,0.2,2.7-0.1c0.5-0.1,0.8-0.7,1.4-0.5
		c0.1,0.1,0.2,0.1,0.2,0.2c1.2,0.1,2.4-0.1,3.5-0.3c0.4,0.1,0.9-0.3,1.1,0.1c0,0.1,0.1,0.1,0,0.2c-1.5,0.6-3.4,0.6-5,0.8
		c-1,0.3-0.6,1.4-0.7,2.3c-0.6,0.3-0.4-0.6-0.8-0.9c-1.6,0.1-2.9,0.6-4.4,1c-0.9,0.5-1.4,1.5-1.6,2.5c0,0.6-0.2,1.3,0.3,1.5
		c1.2,0.4,3,0.6,4-0.2c0.9-0.3,1.7-1.1,2.6-0.7c0.5-0.8,1.3-1.7,2.2-2.1c0.4-0.1,0.4-0.5,0.8-0.6c0.4,0.1,0.2,0.6,0.3,0.7
		c0.9,0.1,1.7-0.2,2.5-0.1c0.5,0.2,0.6,0.7,0.7,1.1c0,0.2-0.1,0.4-0.1,0.6c0.3,0.6-0.4,0.9-0.1,1.6c-1,1.6-2.5,2.9-4.5,3.3
		c-0.4,0.2-0.1,0.8-0.4,1.1c-2.1,1.4-5.4,2.1-6.1,5c-0.4,1.5,0.9,2.1,1.8,2.8c1.2,0.2,1.8,1.8,3.3,1.5c0.6-1.5,0.7-3.3,1.3-4.8
		c1.8-3.1,3.9-6.1,6.6-8.3c0.9-0.7,1.8-1.6,3.1-1.6c0.2,0,0.1,0.2,0.1,0.2c-1.2,0.4-2.1,1.2-2.9,1.9c-0.7,0.7-1.6,1.5-2,2.5
		c-1.5,1.9-3.1,4.2-4.1,6.4c-0.1,0.7-0.2,1.5-0.1,2.3c0.2,0,0.3-0.3,0.5-0.4c1-2.2,2.1-4.3,3.3-6.3c0.7-1,1.3-2.3,2.5-2.8l0.1,0.1
		c-1.4,1.8-2.6,3.9-3.6,6c-0.7,1.7-1.7,3.3-1.8,5.2c0.2,0.5,0.9,0.3,1.2,0.7c0.3,0.2,0.4,0.6,0.3,0.9c-0.1,0.2-0.3,0.5-0.5,0.5
		c-0.5-0.1-0.4-0.7-0.7-1c-0.2,0-0.4-0.2-0.5,0c-0.1,0.7,0.7,1.4,0.1,2.1c-0.6,0.4-0.4-0.5-0.8-0.7c-0.2-0.1-0.6-0.1-0.7,0
		c-1.8,1.7-4.3,2.6-6.8,2.9c-0.8,0.4-2.5-0.2-2.5,1.1c0.1,1.2-0.1,2.7,0.9,3.4c2.5,0.2,5.1,0.2,7.4-0.4c1.8-0.4,3.5-1,5-1.8
		c2.5-1.9,3.7-5,5.3-7.6C44.8,46.1,46.6,41.5,45.6,36.6">
  </path>
  <path fill="#FFFFFF" d="M41.1,20.8c0,1.3-0.1,2.8-1.2,3.6c-0.7,0.3-1.5,0.1-2.1-0.4v-0.2c0.4,0.1,1.1,0.3,1.5-0.1c0-0.2,0-0.4-0.2-0.4
		c-0.6,0.2-1-0.1-1.6-0.2c-0.1-0.1-0.1-0.2-0.1-0.4c0.3-0.1,0.7-0.1,0.9-0.6c-0.2-0.8,0.9-0.8,0.9-1.5c0.2-0.3,0.7-0.6,1.2-0.4
		C40.7,20.3,41,20.5,41.1,20.8">
  </path>
  <path fill="#FFFFFF" d="M22.9,30c-0.2,0.1-0.2-0.2-0.4-0.4c0.1-0.2,0.6-0.1,0.8-0.1C23.5,29.8,23.1,29.8,22.9,30 M23.1,31.1
		c-0.1,0.2-0.3,0.3-0.6,0.2c-0.2-0.1-0.5-0.4-0.8-0.3v-0.2c0.5,0.3,0.7-0.3,1.2-0.2c0.1-0.1,0.3-0.2,0.4-0.1
		C23.4,30.7,23.1,30.9,23.1,31.1 M21,27.2l-0.4,0.1c-0.1-0.2,0.2-0.2,0.2-0.4c0.5,0,1.2-0.2,1.4,0.5c0.1,0.3,0.1,0.7-0.2,0.8h-1.5
		C20.4,27.7,21.5,27.8,21,27.2 M19.5,26.6c-0.1,0.4-0.1,0.9-0.4,1c-0.2-0.1-0.6-0.4-0.7,0.1L18.3,29C18.2,29,18,29,17.9,28.8
		C17.8,28,18,27,18.5,26.4c0.2,0.2,0.6,0.1,0.7-0.2c0.2-0.3,0.4-1,0.9-1c0.1,0.3,0.5,0.4,0.7,0.2l0.2,0.1c0,0.4-0.2,0.6-0.6,0.8
		C20,26.3,19.7,26,19.5,26.6 M22.4,25.2c0.4-0.5,0.3-1.2,0.7-1.7c0.2-0.1,0.4,0.1,0.4,0.2l-0.1,0.8c-0.8-0.1-0.4,1.5-1.4,1.1
		l-0.2-0.3C21.9,25,22.2,25.3,22.4,25.2 M16.3,27.2c-0.4-0.1-0.1-0.7-0.4-1c-0.6,0.4-0.2,1.3-0.8,1.8c-0.1,0-0.2-0.1-0.3-0.2
		c0.6-0.7,0.2-1.8,0.8-2.6c0.5-0.1,0.5,0.7,1,0.3C16.7,26,16.7,26.8,16.3,27.2 M24.1,27.9c-0.3-0.2-0.6,0.2-0.8,0
		c0.1-0.5,0.3-1,0.8-1.2c0.2-0.5,0.1-1.3-0.3-1.7c0.1-0.1,0.2-0.2,0.4-0.2c0.2-0.8,0.3-1.9-0.4-2.5c-0.4-0.1-0.7-0.4-1.1-0.3
		c0,0-0.1,0-0.1-0.1c-0.3-0.1-0.8-0.2-1.1,0c-0.6-0.5-1.4-0.4-2.1-0.6c-1.2-0.3-2.2,0.4-3.1,1c-2.2,1-1.3,3.7-2.6,5.3
		c-0.2,1-0.2,2.3,0.6,3.1c0.7-0.1,1.2,0.6,1.8,0.4c1-0.5-0.5-1.1-0.1-1.8c0.6-0.1,0.4,0.7,0.9,0.9c0.4,0.1,0.6-0.4,0.9-0.4
		c0.6,0.3,0.2,1,0.6,1.5c0.8,1.2,2.2,1.6,3.7,1.7c1-0.1,1.5-0.8,2-1.7C24.5,30.3,25,28.8,24.1,27.9">
  </path>
  <path fill="#FFFFFF" d="M19.4,33.5c0.5,0.4,1.8-0.1,1.7,0.9c0.7,0.5,1.5,0.9,2.2,1.4l2.3,1.8h0.3c0.2-0.2-0.5-0.6,0-0.7
		c1.7,0.3,3.1-0.9,4.6-1.4c0.4-0.1,0.7,0.2,0.9,0.5c0.5,1.2,0.7,2.5,0.7,3.7c-0.6,0.3-1,0.7-1.7,0.8c-0.7-0.4-1.3,0.2-1.8,0.4
		c-1.7,1-3.7,2.2-5.9,1.2c-1.8,1.2-3.3-1-5-1.2c-0.2,0.2-0.3,0.5-0.2,0.9c0.3,0.2,0.8,0.1,1.2,0.3c1,0.6,1.7,1.8,3.1,1.6
		c0,0.1,0.1,0.1,0.1,0.1v0.2c-0.6,0.4-1.5,1-1.7,1.7c0.1,0.2,0.4,0.2,0.6,0.1c1.1-0.6,2-1.6,3.3-1.7c0.6,0.6-0.6,1-0.2,1.7
		c0.7,0.6,1,1.5,0.7,2.4c-0.4,0.6-1.2,0.7-1.4,1.4c-0.1,0.2,0.1,0.6,0.4,0.7c1,0,1.2-2,2.6-1.3c1.1,0.5,2.5,0.3,3.3,1.3
		c0.4,0.6,0.7,1.4,1,2.1c-0.2,0.5-0.9,0.6-1.4,0.8c-2.1,0.9-4.6,1.1-6.8,1.9c-2,0.1-3.7-1.4-5.6-0.3c-1.2,0.2-2.4-0.3-3.3-0.9
		c-0.9-0.7-0.5-2.1-1.5-2.8c-1.6-4.1,0.2-8.2,0.9-12.1c0.9-1.7,0.5-4,2.3-5.2c0.8-0.4,1.4-1,1.8-1.7c0.9-0.1,1,1,1.8,1.1L19.4,33.5z
		">
  </path>
  <path fill="#FFFFFF" d="M36.9,33.5c-0.1,0.3,0.1,0.4,0.2,0.6c-0.1,0.6-0.1,1.2-0.3,1.7c-0.8,1-2,1.9-3.4,2c-0.8-0.1-1-1-1.4-1.6
		c0.1-1,0.6-2.2,1.7-2.6c0.3-0.2,0.6,0.1,0.9,0c0.8,0,1.4-0.5,2.2-0.3L36.9,33.5z">
  </path>
  <path fill="#FFFFFF" d="M22.1,56.9c0.6,0.6,0.6,1.7,0.3,2.5c-1.3,0.5-2.7,0.9-4.1,1c-0.6,0-1.3,0-1.7-0.4c-0.1-0.6-1-0.5-1-1.2
		c-0.1-0.3-0.6-0.2-0.7-0.6c0.2-0.5-0.3-0.7-0.4-1.1c0.1-1,1.4-0.9,2-1.2c0.8-1.1,2.3-0.4,3.3-0.2C20.7,56,21.5,56.4,22.1,56.9">
  </path>
  <path fill="#FFFFFF" d="M41.6,60.7c-0.5,0.4-0.9,0.9-1.5,1.2c-0.9-0.9-2-2-2.5-3.1c0-0.2,0-0.4,0.2-0.4C39.6,58.2,40.7,59.5,41.6,60.7
		">
  </path>
  <path fill="#FFFFFF" d="M34.6,61.4c0.4,1,0.6,2,0.9,2.9c-0.4,0.4-1.2,0.5-1.8,0.8c-5.3,1.6-11.7,0.6-15.8-2.6c0.2-0.4,0.4-0.9,0.9-1
		c0.7-0.1,1.4,0.4,2.2,0.4c0,0,0.9,0.2,1.3,0c0.6,0,1-0.5,1.6-0.7c0.9-0.1,1.8-0.1,2.7-0.2c1.5,0.7,4.4,0.3,4.7,0.2
		c0.3-0.1,1.7-0.9,2.6-1.2C34.6,60.1,34.3,61,34.6,61.4">
  </path>
  <path fill="#FFFFFF" d="M37.9,60.5c0.7,0.7,1.3,1,1.6,1.8c-0.1,0.2-0.4,0.4-0.7,0.6c-0.5-0.2-0.7-1-1.3-0.9c-0.2,0.6,0.5,0.9,0.4,1.5
		c-0.4,0.2-1,0.5-1.5,0.6c-0.6-0.9-0.8-1.8-1-2.8c0.1-1.2,1.5-0.2,2.2-0.8L37.9,60.5z">
  </path>
  <path fill="#FFFFFF" d="M92,40.9c2.5,0,4.5-1.9,4.5-4.8c0-2.8-2.1-4.8-4.5-4.8c-2.5,0-4.6,1.9-4.6,4.8C87.5,39,89.5,40.9,92,40.9
		 M92,28.2c4.7,0,8.4,3.3,8.4,8c0,4.7-3.7,8-8.4,8c-4.7,0-8.4-3.3-8.4-8C83.6,31.5,87.3,28.2,92,28.2">
  </path>
  <path fill="#FFFFFF" d="M103.6,39.3c0,0,1.7,1.7,4.2,1.7c1.1,0,2-0.5,2-1.4c0-2.3-7.4-2-7.4-6.9c0-2.8,2.5-4.5,5.8-4.5
		c3.4,0,5.1,1.7,5.1,1.7l-1.4,2.8c0,0-1.4-1.3-3.7-1.3c-1,0-1.9,0.4-1.9,1.4c0,2.2,7.4,1.9,7.4,6.8c0,2.5-2.2,4.6-5.8,4.6
		c-3.8,0-5.9-2.2-5.9-2.2L103.6,39.3z">
  </path>
  <path fill="#FFFFFF" d="M117.1,31.8h-2v-3h2.1v-4.4h3.7v4.4h3.5v3h-3.5v5.9c0,2.5,2,2.9,3,2.9c0.4,0,0.7-0.1,0.7-0.1v3.3
		c0,0-0.5,0.1-1.2,0.1c-2.1,0-6.4-0.6-6.4-5.8V31.8z">
  </path>
  <path fill="#FFFFFF" d="M134.7,40.9c2.5,0,4.5-1.9,4.5-4.8c0-2.8-2.1-4.8-4.5-4.8c-2.5,0-4.6,1.9-4.6,4.8
		C130.1,39,132.2,40.9,134.7,40.9 M134.7,28.2c4.7,0,8.4,3.3,8.4,8c0,4.7-3.7,8-8.4,8c-4.7,0-8.4-3.3-8.4-8
		C126.3,31.5,130,28.2,134.7,28.2">
  </path>
  <path fill="#FFFFFF" d="M145.8,28.5h3.7v1.8c0,0.6-0.1,1-0.1,1h0.1c0.7-1.3,2.3-3.2,5.4-3.2c3.4,0,5.3,1.8,5.3,5.8v9.8h-3.8v-9.1
		c0-1.9-0.5-3.1-2.4-3.1c-2,0-3.5,1.3-4.1,3.1c-0.2,0.6-0.3,1.3-0.3,2v7h-3.8V28.5z">
  </path>
  <path fill="#FFFFFF" d="M180.6,22.2c5.2,0,7.9,2.9,7.9,2.9l-1.9,2.9c0,0-2.4-2.2-5.8-2.2c-4.5,0-7.1,3.4-7.1,7.3c0,4,2.7,7.6,7.2,7.6
		c3.7,0,6.2-2.7,6.2-2.7l2,2.8c0,0-2.9,3.4-8.4,3.4c-6.5,0-11-4.8-11-11.1C169.7,26.9,174.4,22.2,180.6,22.2">
  </path>
  <path fill="#FFFFFF" d="M191.7,22.5h3.8v7.4c0,0.8-0.1,1.3-0.1,1.3h0.1c0.8-1.5,2.6-3,5.3-3c3.4,0,5.3,1.8,5.3,5.8v9.8h-3.8v-9.1
		c0-1.9-0.5-3.1-2.4-3.1c-2,0-3.6,1.3-4.1,3.2c-0.2,0.6-0.2,1.3-0.2,2v7h-3.8V22.5z">
  </path>
  <path fill="#FFFFFF" d="M231.6,41c2,0,3.8-1.4,3.8-4.8c0-2.4-1.3-4.7-3.8-4.7c-2.1,0-3.8,1.7-3.8,4.7C227.8,39.1,229.3,41,231.6,41
		 M230.9,28.2c3.4,0,4.4,1.9,4.4,1.9h0.1c0,0,0-0.4,0-0.9v-6.7h3.8v21.3h-3.6v-1.3c0-0.6,0.1-1,0.1-1h-0.1c0,0-1.3,2.6-4.8,2.6
		c-4.1,0-6.8-3.3-6.8-8C223.9,31.3,226.8,28.2,230.9,28.2">
  </path>
  <path fill="#FFFFFF" d="M242.3,28.5h3.7v2.6c0,0.6-0.1,1.1-0.1,1.1h0.1c0.7-2.2,2.5-3.9,4.9-3.9c0.4,0,0.7,0.1,0.7,0.1v3.7
		c0,0-0.4-0.1-0.9-0.1c-1.6,0-3.4,0.9-4.2,3.2c-0.2,0.7-0.3,1.6-0.3,2.5v6.1h-3.8V28.5z">
  </path>
  <path fill="#FFFFFF" d="M263.4,34.3c-0.1-2.1-1.3-3.2-3-3.2c-1.9,0-3.3,1.2-3.7,3.2H263.4z M260.4,28.2c4.4,0,6.8,3.2,6.8,7.3
		c0,0.4-0.1,1.5-0.1,1.5h-10.5c0.2,2.7,2.3,4,4.6,4c2.5,0,4.4-1.7,4.4-1.7L267,42c0,0-2.3,2.2-6.1,2.2c-5.1,0-8.2-3.7-8.2-8
		C252.7,31.5,255.9,28.2,260.4,28.2">
  </path>
  <path fill="#FFFFFF" d="M270,28.5h3.7v1.8c0,0.6-0.1,1-0.1,1h0.1c0.7-1.3,2.3-3.2,5.4-3.2c3.4,0,5.3,1.8,5.3,5.8v9.8h-3.8v-9.1
		c0-1.9-0.5-3.1-2.4-3.1c-2,0-3.5,1.3-4.1,3.1c-0.2,0.6-0.3,1.3-0.3,2v7H270V28.5z">
  </path>
  <polygon fill="#FFFFFF" points="308.8,22.5 312.7,22.5 312.7,31.6 322.4,31.6 322.4,22.5 326.3,22.5 326.3,43.8 322.4,43.8 
		322.4,34.9 312.7,34.9 312.7,43.8 308.8,43.8 	">
  </polygon>
  <path fill="#FFFFFF" d="M337.5,40.9c2.5,0,4.5-1.9,4.5-4.8c0-2.8-2.1-4.8-4.5-4.8c-2.5,0-4.6,2-4.6,4.8C332.9,39,335,40.9,337.5,40.9
		 M337.4,28.2c4.7,0,8.4,3.3,8.4,8c0,4.7-3.7,8-8.4,8c-4.7,0-8.4-3.3-8.4-8C329,31.5,332.8,28.2,337.4,28.2">
  </path>
  <path fill="#FFFFFF" d="M349.1,39.3c0,0,1.7,1.7,4.2,1.7c1.1,0,2-0.5,2-1.4c0-2.3-7.4-2-7.4-6.9c0-2.8,2.5-4.5,5.8-4.5
		c3.4,0,5.1,1.7,5.1,1.7l-1.4,2.8c0,0-1.4-1.3-3.7-1.3c-1,0-1.9,0.4-1.9,1.4c0,2.2,7.4,1.9,7.4,6.8c0,2.5-2.2,4.6-5.8,4.6
		c-3.8,0-5.9-2.2-5.9-2.2L349.1,39.3z">
  </path>
  <path fill="#FFFFFF" d="M369.3,41c2.1,0,3.8-1.7,3.8-4.7c0-2.9-1.6-4.8-3.8-4.8c-2,0-3.8,1.4-3.8,4.8C365.5,38.6,366.8,41,369.3,41
		 M361.9,28.5h3.5v1.1c0,0.6-0.1,1.1-0.1,1.1h0.1c0,0,1.3-2.5,4.9-2.5c4.1,0,6.8,3.3,6.8,8c0,4.9-3,8-7,8c-3,0-4.4-2.1-4.4-2.1h-0.1
		c0,0,0.1,0.5,0.1,1.3v6.4h-3.8V28.5z">
  </path>
  <path fill="#FFFFFF" d="M388.2,31.8h-2v-3h2.1v-4.4h3.7v4.4h3.5v3H392v5.9c0,2.5,2,2.9,3,2.9c0.4,0,0.7-0.1,0.7-0.1v3.3
		c0,0-0.4,0.1-1.2,0.1c-2.1,0-6.4-0.6-6.4-5.8V31.8z">
  </path>
  <path fill="#FFFFFF" d="M403.4,41.2c2,0,3.4-2.2,3.4-4v-0.4h-0.7c-2,0-5.1,0.3-5.1,2.4C401.1,40.3,401.9,41.2,403.4,41.2 M406.3,34.2
		h0.5V34c0-2-1.3-2.7-2.9-2.7c-2.2,0-4.2,1.5-4.2,1.5l-1.4-2.7c0,0,2.4-1.9,6-1.9c4,0,6.4,2.2,6.4,6.1v9.6h-3.5v-1.3
		c0-0.6,0.1-1.1,0.1-1.1h-0.1c0,0-1.2,2.7-4.6,2.7c-2.7,0-5.2-1.7-5.2-4.8C397.3,34.6,403.8,34.2,406.3,34.2">
  </path>
  <path fill="#FFFFFF" d="M289.3,39.3c0,0,1.7,1.7,4.2,1.7c1.1,0,2-0.5,2-1.4c0-2.3-7.4-2-7.4-6.9c0-2.9,2.6-4.5,5.9-4.5
		c3.5,0,5.1,1.7,5.1,1.7l-1.4,2.8c0,0-1.4-1.3-3.8-1.3c-1,0-2,0.4-2,1.4c0,2.2,7.4,1.9,7.4,6.8c0,2.5-2.2,4.6-5.9,4.6
		c-3.8,0-5.9-2.3-5.9-2.3L289.3,39.3z">
  </path>
  <rect x="217.4" y="22.5" fill="#FFFFFF" width="3.8" height="21.3">
  </rect>
  <rect x="414" y="22.5" fill="#FFFFFF" width="3.8" height="21.3">
  </rect>
  <path fill="#FFFFFF" d="M288.9,24.5c0-1.1-0.9-2-2-2c-1.1,0-2,0.9-2,2c0,1,0.8,1.9,1.8,1.9c-0.3,0.3-0.8,0.5-1.4,0.7l0.4,1.2
		C288.7,27.5,288.9,25.5,288.9,24.5C288.9,24.6,288.9,24.6,288.9,24.5">
  </path>
  <path fill="#FFFFFF" d="M74.8,40.5c2,0,3.1-1.3,3.1-3.1c0-1.8-1.1-3.1-3.1-3.1h-4.1v6.1H74.8z M74.4,31.2c1.7,0,2.6-1.2,2.6-2.7
		c0-1.5-0.9-2.6-2.7-2.6h-3.7v5.4H74.4z M66.8,22.5h7.6c3.8,0,6.6,2,6.6,5.5c0,2-1,3.7-2.6,4.6v0.1c2.3,0.7,3.4,2.8,3.4,5
		c0,4.3-3.4,6.2-7.3,6.2h-7.7V22.5z">
  </path>
  <rect x="209.8" y="28.5" fill="#FFFFFF" width="3.8" height="15.3">
  </rect>
  <path fill="#FFFFFF" d="M213.8,24.5c0,1.2-1,2.1-2.1,2.1c-1.2,0-2.1-1-2.1-2.1c0-1.2,1-2.1,2.1-2.1C212.9,22.4,213.8,23.3,213.8,24.5">
  </path>
  <rect x="379.9" y="28.5" fill="#FFFFFF" width="3.8" height="15.3">
  </rect>
  <path fill="#FFFFFF" d="M383.9,24.5c0,1.2-1,2.1-2.1,2.1c-1.2,0-2.1-1-2.1-2.1c0-1.2,1-2.1,2.1-2.1C383,22.4,383.9,23.3,383.9,24.5">
  </path>
  <path fill="#003087" d="M92,40.9c2.5,0,4.5-1.9,4.5-4.8c0-2.8-2.1-4.8-4.5-4.8c-2.5,0-4.6,1.9-4.6,4.8C87.5,39,89.5,40.9,92,40.9
		 M92,28.2c4.7,0,8.4,3.3,8.4,8c0,4.7-3.7,8-8.4,8c-4.7,0-8.4-3.3-8.4-8C83.6,31.5,87.3,28.2,92,28.2">
  </path>
  <path fill="#003087" d="M103.6,39.3c0,0,1.7,1.7,4.2,1.7c1.1,0,2-0.5,2-1.4c0-2.3-7.4-2-7.4-6.9c0-2.8,2.5-4.5,5.8-4.5
		c3.4,0,5.1,1.7,5.1,1.7l-1.4,2.8c0,0-1.4-1.3-3.7-1.3c-1,0-1.9,0.4-1.9,1.4c0,2.2,7.4,1.9,7.4,6.8c0,2.5-2.2,4.6-5.8,4.6
		c-3.8,0-5.9-2.2-5.9-2.2L103.6,39.3z">
  </path>
  <path fill="#003087" d="M117.1,31.8h-2v-3h2.1v-4.4h3.7v4.4h3.5v3h-3.5v5.9c0,2.5,2,2.9,3,2.9c0.4,0,0.7-0.1,0.7-0.1v3.3
		c0,0-0.5,0.1-1.2,0.1c-2.1,0-6.4-0.6-6.4-5.8V31.8z">
  </path>
  <path fill="#003087" d="M134.7,40.9c2.5,0,4.5-1.9,4.5-4.8c0-2.8-2.1-4.8-4.5-4.8c-2.5,0-4.6,1.9-4.6,4.8
		C130.1,39,132.2,40.9,134.7,40.9 M134.7,28.2c4.7,0,8.4,3.3,8.4,8c0,4.7-3.7,8-8.4,8c-4.7,0-8.4-3.3-8.4-8
		C126.3,31.5,130,28.2,134.7,28.2">
  </path>
  <path fill="#003087" d="M145.8,28.5h3.7v1.8c0,0.6-0.1,1-0.1,1h0.1c0.7-1.3,2.3-3.2,5.4-3.2c3.4,0,5.3,1.8,5.3,5.8v9.8h-3.8v-9.1
		c0-1.9-0.5-3.1-2.4-3.1c-2,0-3.5,1.3-4.1,3.1c-0.2,0.6-0.3,1.3-0.3,2v7h-3.8V28.5z">
  </path>
  <path fill="#003087" d="M180.6,22.2c5.2,0,7.9,2.9,7.9,2.9l-1.9,2.9c0,0-2.4-2.2-5.8-2.2c-4.5,0-7.1,3.4-7.1,7.3c0,4,2.7,7.6,7.2,7.6
		c3.7,0,6.2-2.7,6.2-2.7l2,2.8c0,0-2.9,3.4-8.4,3.4c-6.5,0-11-4.8-11-11.1C169.7,26.9,174.4,22.2,180.6,22.2">
  </path>
  <path fill="#003087" d="M191.7,22.5h3.8v7.4c0,0.8-0.1,1.3-0.1,1.3h0.1c0.8-1.5,2.6-3,5.3-3c3.4,0,5.3,1.8,5.3,5.8v9.8h-3.8v-9.1
		c0-1.9-0.5-3.1-2.4-3.1c-2,0-3.6,1.3-4.1,3.2c-0.2,0.6-0.2,1.3-0.2,2v7h-3.8V22.5z">
  </path>
  <path fill="#003087" d="M231.6,41c2,0,3.8-1.4,3.8-4.8c0-2.4-1.3-4.7-3.8-4.7c-2.1,0-3.8,1.7-3.8,4.7C227.8,39.1,229.3,41,231.6,41
		 M230.9,28.2c3.4,0,4.4,1.9,4.4,1.9h0.1c0,0,0-0.4,0-0.9v-6.7h3.8v21.3h-3.6v-1.3c0-0.6,0.1-1,0.1-1h-0.1c0,0-1.3,2.6-4.8,2.6
		c-4.1,0-6.8-3.3-6.8-8C223.9,31.3,226.8,28.2,230.9,28.2">
  </path>
  <path fill="#003087" d="M242.3,28.5h3.7v2.6c0,0.6-0.1,1.1-0.1,1.1h0.1c0.7-2.2,2.5-3.9,4.9-3.9c0.4,0,0.7,0.1,0.7,0.1v3.7
		c0,0-0.4-0.1-0.9-0.1c-1.6,0-3.4,0.9-4.2,3.2c-0.2,0.7-0.3,1.6-0.3,2.5v6.1h-3.8V28.5z">
  </path>
  <path fill="#003087" d="M263.4,34.3c-0.1-2.1-1.3-3.2-3-3.2c-1.9,0-3.3,1.2-3.7,3.2H263.4z M260.4,28.2c4.4,0,6.8,3.2,6.8,7.3
		c0,0.4-0.1,1.5-0.1,1.5h-10.5c0.2,2.7,2.3,4,4.6,4c2.5,0,4.4-1.7,4.4-1.7L267,42c0,0-2.3,2.2-6.1,2.2c-5.1,0-8.2-3.7-8.2-8
		C252.7,31.5,255.9,28.2,260.4,28.2">
  </path>
  <path fill="#003087" d="M270,28.5h3.7v1.8c0,0.6-0.1,1-0.1,1h0.1c0.7-1.3,2.3-3.2,5.4-3.2c3.4,0,5.3,1.8,5.3,5.8v9.8h-3.8v-9.1
		c0-1.9-0.5-3.1-2.4-3.1c-2,0-3.5,1.3-4.1,3.1c-0.2,0.6-0.3,1.3-0.3,2v7H270V28.5z">
  </path>
  <polygon fill="#003087" points="308.8,22.5 312.7,22.5 312.7,31.6 322.4,31.6 322.4,22.5 326.3,22.5 326.3,43.8 322.4,43.8 
		322.4,34.9 312.7,34.9 312.7,43.8 308.8,43.8 	">
  </polygon>
  <path fill="#003087" d="M337.5,40.9c2.5,0,4.5-1.9,4.5-4.8c0-2.8-2.1-4.8-4.5-4.8c-2.5,0-4.6,2-4.6,4.8C332.9,39,335,40.9,337.5,40.9
		 M337.4,28.2c4.7,0,8.4,3.3,8.4,8c0,4.7-3.7,8-8.4,8c-4.7,0-8.4-3.3-8.4-8C329,31.5,332.8,28.2,337.4,28.2">
  </path>
  <path fill="#003087" d="M349.1,39.3c0,0,1.7,1.7,4.2,1.7c1.1,0,2-0.5,2-1.4c0-2.3-7.4-2-7.4-6.9c0-2.8,2.5-4.5,5.8-4.5
		c3.4,0,5.1,1.7,5.1,1.7l-1.4,2.8c0,0-1.4-1.3-3.7-1.3c-1,0-1.9,0.4-1.9,1.4c0,2.2,7.4,1.9,7.4,6.8c0,2.5-2.2,4.6-5.8,4.6
		c-3.8,0-5.9-2.2-5.9-2.2L349.1,39.3z">
  </path>
  <path fill="#003087" d="M369.3,41c2.1,0,3.8-1.7,3.8-4.7c0-2.9-1.6-4.8-3.8-4.8c-2,0-3.8,1.4-3.8,4.8C365.5,38.6,366.8,41,369.3,41
		 M361.9,28.5h3.5v1.1c0,0.6-0.1,1.1-0.1,1.1h0.1c0,0,1.3-2.5,4.9-2.5c4.1,0,6.8,3.3,6.8,8c0,4.9-3,8-7,8c-3,0-4.4-2.1-4.4-2.1h-0.1
		c0,0,0.1,0.5,0.1,1.3v6.4h-3.8V28.5z">
  </path>
  <path fill="#003087" d="M388.2,31.8h-2v-3h2.1v-4.4h3.7v4.4h3.5v3H392v5.9c0,2.5,2,2.9,3,2.9c0.4,0,0.7-0.1,0.7-0.1v3.3
		c0,0-0.4,0.1-1.2,0.1c-2.1,0-6.4-0.6-6.4-5.8V31.8z">
  </path>
  <path fill="#003087" d="M403.4,41.2c2,0,3.4-2.2,3.4-4v-0.4h-0.7c-2,0-5.1,0.3-5.1,2.4C401.1,40.3,401.9,41.2,403.4,41.2 M406.3,34.2
		h0.5V34c0-2-1.3-2.7-2.9-2.7c-2.2,0-4.2,1.5-4.2,1.5l-1.4-2.7c0,0,2.4-1.9,6-1.9c4,0,6.4,2.2,6.4,6.1v9.6h-3.5v-1.3
		c0-0.6,0.1-1.1,0.1-1.1h-0.1c0,0-1.2,2.7-4.6,2.7c-2.7,0-5.2-1.7-5.2-4.8C397.3,34.6,403.8,34.2,406.3,34.2">
  </path>
  <path fill="#003087" d="M289.3,39.3c0,0,1.7,1.7,4.2,1.7c1.1,0,2-0.5,2-1.4c0-2.3-7.4-2-7.4-6.9c0-2.9,2.6-4.5,5.9-4.5
		c3.5,0,5.1,1.7,5.1,1.7l-1.4,2.8c0,0-1.4-1.3-3.8-1.3c-1,0-2,0.4-2,1.4c0,2.2,7.4,1.9,7.4,6.8c0,2.5-2.2,4.6-5.9,4.6
		c-3.8,0-5.9-2.3-5.9-2.3L289.3,39.3z">
  </path>
  <rect x="217.4" y="22.5" fill="#003087" width="3.8" height="21.3">
  </rect>
  <rect x="414" y="22.5" fill="#003087" width="3.8" height="21.3">
  </rect>
  <path fill="#003087" d="M288.9,24.5c0-1.1-0.9-2-2-2c-1.1,0-2,0.9-2,2c0,1,0.8,1.9,1.8,1.9c-0.3,0.3-0.8,0.5-1.4,0.7l0.4,1.2
		C288.7,27.5,288.9,25.5,288.9,24.5C288.9,24.6,288.9,24.6,288.9,24.5">
  </path>
  <path fill="#003087" d="M74.8,40.5c2,0,3.1-1.3,3.1-3.1c0-1.8-1.1-3.1-3.1-3.1h-4.1v6.1H74.8z M74.4,31.2c1.7,0,2.6-1.2,2.6-2.7
		c0-1.5-0.9-2.6-2.7-2.6h-3.7v5.4H74.4z M66.8,22.5h7.6c3.8,0,6.6,2,6.6,5.5c0,2-1,3.7-2.6,4.6v0.1c2.3,0.7,3.4,2.8,3.4,5
		c0,4.3-3.4,6.2-7.3,6.2h-7.7V22.5z">
  </path>
  <rect x="209.8" y="28.5" fill="#003087" width="3.8" height="15.3">
  </rect>
  <path fill="#003087" d="M213.8,24.5c0,1.2-1,2.1-2.1,2.1c-1.2,0-2.1-1-2.1-2.1c0-1.2,1-2.1,2.1-2.1C212.9,22.4,213.8,23.3,213.8,24.5">
  </path>
  <rect x="379.9" y="28.5" fill="#003087" width="3.8" height="15.3">
  </rect>
  <path fill="#003087" d="M383.9,24.5c0,1.2-1,2.1-2.1,2.1c-1.2,0-2.1-1-2.1-2.1c0-1.2,1-2.1,2.1-2.1C383,22.4,383.9,23.3,383.9,24.5">
  </path>
 </g>
</svg>