<?xml version="1.0" encoding="UTF-8" standalone="no"?>
<svg version="1.1" x="0px" y="0px" viewBox="0 0 1894 578" xmlns="http://www.w3.org/2000/svg" xmlns:svg="http://www.w3.org/2000/svg">
  <title>GIC: Genomic Information Commons</title>
  <g id="GIC" fill="#000000" opacity="1" stroke="none">
    <path id="GIC:G" d="m 211.53134,1 c 6.75447,0.912964 13.03272,1.882075 19.32733,2.729575 34.93622,4.703776 66.42893,18.423049 96.08432,36.843343 9.85681,6.122509 12.86145,19.711361 7.04474,30.037617 -5.76547,10.23529 -18.92529,14.07473 -30.54733,8.56147 -8.24869,-3.91301 -16.11441,-8.646836 -24.41794,-12.42833 C 237.59831,47.878792 194.54019,42.803379 150.51407,54.813091 97.368027,69.310593 65.373642,104.8456 54.272499,158.48601 c -6.870396,33.19755 -5.462688,66.36433 7.379814,98.20576 18.768952,46.5354 53.772947,73.948 102.569257,83.13187 44.09326,8.2987 86.42743,1.51312 126.42073,-18.99317 1.43567,-0.73614 3.16773,-2.73233 3.17386,-4.14816 0.1359,-31.49347 0.0483,-62.9879 -0.007,-94.48213 -2.4e-4,-0.13886 -0.13919,-0.27747 -0.51395,-0.97836 -1.46972,0 -3.24746,0 -5.02523,-2e-5 -27.49829,-9e-5 -54.99668,0.0391 -82.49486,-0.0192 -11.24417,-0.0238 -19.49162,-5.41826 -22.70093,-14.56476 -5.09134,-14.51036 5.21665,-29.46197 20.83356,-29.59962 26.16299,-0.23064 52.32939,-0.0761 78.49437,-0.0813 9.49942,-0.002 19.00027,-0.10265 28.49789,0.0294 14.98227,0.20828 25.64993,10.02338 26.31302,24.99144 0.56744,12.80771 0.25485,25.65702 0.23145,38.48775 -0.0538,29.4951 0.12451,58.99522 -0.39075,88.48283 -0.23337,13.35553 -7.17328,23.61902 -19.01077,29.61118 -35.7345,18.08887 -73.49604,28.90365 -113.70501,30.67734 -29.07936,1.28274 -57.5224,-1.68402 -84.92623,-11.94196 C 67.306068,357.79041 32.133877,321.49435 13.079655,269.41171 6.698719,251.97012 3.30972,233.85718 1.377442,215.1908 1,202.64577 1,190.29155 1.372494,177.27728 3.572752,164.97118 4.266662,153.009 7.411152,141.73004 28.813675,64.961464 78.398483,18.412403 157.18178,3.740834 162.12006,2.821195 167.06055,1.913338 172,1 c 13.02089,0 26.04179,0 39.53134,0 z" />
    <path id="GIC:I" d="m 436.00372,72 c 0.0205,-15.165115 -0.19238,-29.835464 0.13654,-44.49366 0.25519,-11.37388 8.53873,-21.049466 19.13638,-23.303225 11.20456,-2.382826 23.02756,3.206837 27.70282,13.856347 1.74246,3.969093 2.53638,8.670879 2.54172,13.040065 0.13425,109.658043 0.1188,219.316263 0.087,328.974453 -0.004,12.78634 -5.83599,21.62161 -16.37851,25.34283 -10.32308,3.64374 -21.48611,0.9216 -27.78512,-7.79245 -2.69074,-3.72232 -3.81897,-8.66135 -5.23068,-13.18076 -0.61966,-1.98364 -0.2053,-4.30047 -0.20542,-6.466 -0.005,-95.15921 -0.005,-190.31841 -0.005,-285.9776 z" />
    <path id="GIC:C" d="m 777.53137,1.000002 c 7.26965,0.964413 14.07434,1.903477 20.87104,2.897583 30.8861,4.517511 59.1416,16.310978 86.01727,31.634516 10.3186,5.883258 13.57226,19.164055 8.01721,29.186611 -5.60522,10.113014 -17.77399,13.626175 -29.0639,8.82241 -14.64826,-6.232696 -29.03162,-13.565025 -44.24927,-17.889408 -38.86914,-11.045398 -78.13391,-11.459961 -116.30866,2.91119 -39.82611,14.992813 -65.62207,44.061576 -77.49963,84.752296 -11.63727,39.86801 -10.77429,79.78102 5.16229,118.38478 17.67182,42.80716 50.60181,68.14841 95.58948,77.07346 44.46466,8.82135 87.39148,2.96826 128.24579,-17.094 5.17889,-2.54318 10.51422,-5.38885 16.08276,-6.38455 10.6709,-1.90784 20.4635,4.22437 23.49829,13.43128 3.40161,10.3193 -0.23938,21.83929 -10.04602,26.64608 -16.96228,8.31424 -33.89117,17.27613 -51.7821,23.00653 -51.56421,16.51593 -103.35834,16.42029 -153.86145,-4.41421 C 625.7243,352.31442 592.20807,312.85858 576.99268,258.59253 563.07336,208.9491 564.38306,159.26424 584.16119,111.25601 606.3465,57.404716 646.76117,23.409714 702.78656,8.254384 715.07373,4.930602 727.96637,3.8448 740.79004,1.364181 753.02087,1 765.04181,1 777.53137,1.000002 Z" />
  </g>
  <g id="dots" opacity="1" stroke="none">
    <path fill="#75c44a" id="green-dot" d="m 743.15851,530.61615 c -3.85803,-27.02042 5.27832,-47.96439 28.1405,-62.12076 20.07318,-12.42938 45.60327,-10.62204 64.77942,3.58875 18.82257,13.94876 27.49286,38.19381 21.88513,61.19803 -5.54498,22.74664 -24.35937,39.88604 -47.31097,43.91681 -28.5531,5.01458 -60.06702,-12.68079 -67.49408,-46.58283 z"/>
    <path fill="#338fff" id="blue-dot" d="m 236.57443,545.33875 c -16.50068,-35.74817 2.63153,-75.05002 40.39743,-83.69581 31.22812,-7.14907 63.75104,14.14249 69.87879,45.74714 6.37823,32.8966 -15.46549,64.7871 -47.76087,69.72796 -26.38705,4.03699 -50.1559,-7.95837 -62.51535,-31.77929 z" />
    <path fill="#ffbc36" id="orange-dot" d="m 403.79388,537.04804 c -9.67074,-35.12427 9.65122,-67.87558 44.20697,-75.5188 33.82547,-7.48169 67.60254,18.24942 70.30573,52.75036 2.77386,35.40277 -26.04944,65.55396 -62.02136,63.73957 -23.26236,-1.17322 -44.05814,-16.98945 -52.49134,-40.97113 z" />
    <path fill="#ed472d" id="red-dot" d="m 164.12173,481.91052 c 26.98,33.72034 10.76424,84.07105 -32.0124,94.56568 -32.00129,7.85101 -65.582658,-13.87525 -71.166501,-46.16626 -5.944794,-34.3783 17.238728,-66.01285 50.969521,-69.48096 20.94527,-2.15353 38.1747,5.08356 52.20938,21.08154 z" />
    <path fill="#675aff" id="purple-dot" d="m 637.09033,460.84589 c 28.22394,2.90268 51.22089,27.67981 51.91132,55.50335 0.76025,30.63813 -19.90729,56.37555 -48.79627,60.76624 -32.77075,4.98065 -61.79394,-15.51673 -67.83996,-47.9115 -5.75574,-30.83896 14.81024,-61.02301 46.4602,-67.5712 5.75354,-1.19034 11.87543,-0.60007 18.26471,-0.78689 z" />
  </g>
  <g id="gic-text" fill="#000000" opacity="1" stroke="none">
    <g id="Genomic">
      <path id="Genomic:G" d="m 1091.7382,12.669509 c 20.2054,-6.870424 39.0229,-4.388087 56.9056,6.231149 4.3644,2.591711 5.6965,5.916231 3.9246,9.384294 -1.7753,3.474489 -5.8195,4.266482 -10.3954,1.690987 -12.07,-6.793427 -24.9258,-9.498972 -38.4937,-6.574763 -23.9136,5.153986 -33.3298,25.564442 -30.1744,47.3555 3.6697,25.342125 24.9089,39.024534 51.0443,33.863464 16.6334,-3.28468 16.6333,-3.28468 16.6333,-19.801842 0,-4.329536 1e-4,-8.659073 1e-4,-13.735267 -7.0409,0 -13.9526,0.01036 -20.8642,-0.007 -1.8309,-0.0046 -4.1471,0.584831 -5.3825,-0.298462 -2.0389,-1.457749 -4.6405,-3.882645 -4.6556,-5.917305 -0.015,-1.985768 2.8332,-5.638897 4.563,-5.723282 10.9635,-0.534855 21.971,-0.482998 32.9515,-0.175266 3.5834,0.100429 5.5829,3.107742 5.6149,6.607708 0.1097,11.992118 0.2507,23.997993 -0.2631,35.971036 -0.1155,2.69147 -2.1804,6.39791 -4.4607,7.72443 -18.7251,10.89295 -46.6333,13.94693 -66.068,1.0679 -19.5764,-12.972931 -25.4815,-32.219902 -23.0232,-54.343937 2.242,-20.176628 12.7538,-34.989082 32.1435,-43.319386 z" />
      <path id="Genomic:e" d="m 1195.5518,99.484795 c 11.5861,8.519675 23.6723,7.167955 35.963,3.067245 1.2556,-0.41894 2.4256,-1.08875 3.6709,-1.54517 3.4177,-1.25259 6.3432,-0.54626 8.1097,2.73406 1.9003,3.52878 0.1807,6.27043 -2.8489,7.95296 -15.8861,8.82251 -32.3432,10.02339 -48.7253,1.92829 -10.0508,-4.96659 -15.2821,-14.061992 -17.0192,-25.030536 -2.239,-14.138534 -1.094,-27.78891 8.5385,-39.174152 10.2262,-12.087204 23.9292,-14.0644 38.272,-10.101524 14.2226,3.929683 21.643,14.648395 24.4185,28.78741 0.3518,1.79229 0.4866,3.634026 0.6247,5.460198 0.5111,6.75724 -1.9923,9.458503 -8.8509,9.46849 -16.4829,0.024 -32.9658,0.0078 -49.6753,0.0078 0.4423,6.52005 2.8566,11.794685 7.5223,16.444954 m 26.2696,-47.002312 c -8.5655,-4.449574 -17.0344,-4.304119 -24.9446,1.277393 -6.009,4.239956 -8.797,10.360081 -8.8315,17.756375 15.192,0 29.9025,0 44.6319,0 -0.6926,-8.957623 -3.294,-13.626412 -10.8558,-19.033768 z" />
      <path id="Genomic:n" d="m 1334.8522,107.70343 c -0.7616,3.08116 -0.8213,6.38045 -2.4991,8.11354 -1.4294,1.47667 -5.2434,2.22093 -7.0488,1.33844 -2.0235,-0.9892 -4.1228,-4.13195 -4.2014,-6.40634 -0.4138,-11.979112 -0.1996,-23.97992 -0.2043,-35.973206 -8e-4,-1.832276 0.028,-3.665444 -0.017,-5.496689 -0.399,-16.032917 -11.9467,-23.587113 -26.6005,-16.667793 -5.2262,2.467693 -9.5067,7.07621 -13.9104,11.049533 -1.0856,0.979618 -1.3265,3.295102 -1.3392,5.001072 -0.1029,13.82486 0.017,27.651421 -0.094,41.476163 -0.049,6.22688 -5.8586,10.08801 -10.3501,6.70458 -1.8942,-1.42688 -3.4079,-4.63853 -3.4383,-7.05975 -0.2645,-20.984945 -0.1746,-41.974691 -0.1359,-62.962923 0.01,-5.32486 2.7882,-8.543388 7.0423,-8.447456 4.2443,0.09573 6.7916,3.274658 6.9135,8.649986 0.026,1.149856 0,2.300812 0,4.154995 1.6112,-1.416485 2.7907,-2.438709 3.9541,-3.478665 5.5551,-4.965316 11.6579,-8.87817 19.2755,-9.704441 19.3305,-2.096752 32.1165,9.246823 32.5723,29.271797 0.3032,13.319016 0.07,26.650239 0.077,40.437157 z" />
      <path id="Genomic:o" d="m 1431.0579,86.006248 c -4.0653,22.489332 -21.3078,35.098832 -43.7226,32.371792 -21.5764,-2.62502 -35.1466,-19.397342 -33.8484,-41.835682 1.311,-22.658969 14.5623,-37.454376 34.6025,-38.634422 29.1991,-1.71936 46.965,17.969788 42.9685,48.098312 m -58.1444,-26.494571 c -5.3916,7.286838 -6.216,15.52676 -5.0875,24.191746 2.2933,17.609507 19.4598,27.260837 35.5328,19.960597 10.7516,-4.883281 16.196,-17.20615 13.9933,-31.253681 -1.6392,-10.453544 -6.9255,-18.003505 -17.2931,-20.918754 -10.2062,-2.869789 -19.3993,-0.758061 -27.1455,8.020092 z" />
      <path id="Genomic:m" d="m 1461.5972,39.372543 c 1.7696,3.659325 3.2258,7.102631 4.6801,10.541245 5.8696,-7.478619 13.9209,-12.502327 24.8169,-12.265652 11.0535,0.240097 18.3813,5.765404 23.4475,15.438511 5.792,-8.820824 13.4952,-14.40361 24.1017,-15.187374 16.6741,-1.232109 28.2755,8.115028 29.1353,24.890247 0.8263,16.119431 0.3271,32.311043 0.2414,48.47005 -0.022,4.09968 -3.2811,6.96604 -7.1536,6.6652 -4.3711,-0.33956 -6.6034,-3.05964 -6.6694,-7.2668 -0.1408,-8.99459 -0.042,-17.992816 -0.059,-26.989521 -0.011,-5.497612 0.014,-10.996543 -0.097,-16.492454 -0.2908,-14.356545 -8.4987,-19.223274 -22.7097,-15.44286 -8.745,2.326294 -14.6338,11.112141 -14.634,20.111233 -4e-4,11.829079 7e-4,23.658165 0,35.487242 -3e-4,1.16615 0.069,2.34027 -0.04,3.49703 -0.4222,4.49802 -3.4023,7.46701 -7.3971,7.09207 -4.3279,-0.40623 -6.478,-2.99458 -6.4797,-7.34761 0,-12.328853 0,-24.657733 -0.025,-36.986522 -0.01,-2.496437 -0.074,-4.998527 -0.2545,-7.48777 -0.9995,-13.783893 -8.5122,-17.509266 -21.8496,-14.700252 -8.8595,1.865894 -15.604,11.350651 -15.6041,20.457897 -10e-5,12.495506 0.021,24.991074 -0.01,37.486507 -0.014,5.39871 -2.5403,8.51655 -6.8344,8.61531 -4.3213,0.0994 -7.0955,-3.03864 -7.1069,-8.37686 -0.044,-20.99236 -0.07,-41.985074 0.014,-62.977204 0.026,-6.564659 3.6308,-9.072552 10.4875,-7.231663 z" />
      <g id="Genomic:i">
        <path d="m 1591.6,101.98097 c -10e-5,-17.995367 -0.01,-35.493963 0.01,-52.992532 0,-1.661961 -0.033,-3.352173 0.2423,-4.979939 0.6183,-3.663013 3.1434,-5.569382 6.6283,-5.575756 3.4481,-0.0063 6.0796,1.737675 6.7039,5.467419 0.2457,1.467083 0.2614,2.984344 0.2626,4.478866 0.016,19.831726 0.019,39.663483 0,59.495192 0,1.65888 0.044,3.37846 -0.3544,4.96395 -0.8958,3.56708 -3.6917,5.74422 -6.987,4.87382 -2.3902,-0.6313 -5.2021,-3.05711 -6.0379,-5.33791 -1.084,-2.95832 -0.3919,-6.56739 -0.4643,-10.39311 z" />
        <path d="m 1604.1267,21.300766 c -6.0881,3.098972 -11.0177,2.04307 -13.0251,-2.633379 -1.7007,-3.961625 -0.9124,-7.520631 2.5841,-10.186584 3.1862,-2.429426 8.1635,-1.935418 10.9295,0.910812 3.0866,3.176109 3.0212,6.964798 -0.4885,11.909151 z" />
      </g>
      <path id="Genomic:c" d="m 1679.3108,39.567551 c 3.6724,1.699115 7.0552,3.089153 10.264,4.804153 3.4723,1.855713 5.3793,4.693276 3.3058,8.628391 -2.0542,3.898854 -5.4035,4.088578 -8.9366,2.179287 -8.2742,-4.47137 -16.934,-5.626735 -26.0343,-3.287971 -12.8341,3.298405 -19.6564,13.792396 -18.8855,28.96302 0.6461,12.715325 9.356,22.356809 21.6683,24.288279 7.839,1.22975 15.2383,0.24097 22.2172,-3.54735 3.7529,-2.037155 7.2929,-2.746407 9.9144,1.58471 2.118,3.49949 0.5906,6.64464 -4.3757,9.46618 -22.9544,13.04128 -51.992,4.40324 -60.5149,-18.435709 -5.6601,-15.166886 -4.3837,-29.99424 6.3738,-42.674393 10.8294,-12.765221 25.3106,-15.585171 41.2415,-12.940685 1.145,0.190071 2.2646,0.533844 3.762,0.972088 z" />
    </g>
    <g id="Information">
      <path id="Information:I" d="m 1079.2819,272.00055 c -2e-4,12.80807 0.029,25.11621 -0.014,37.42413 -0.02,5.69599 -2.2725,8.49393 -6.7283,8.61939 -4.5643,0.12857 -7.17,-2.90323 -7.1779,-8.75232 -0.041,-30.27112 -0.045,-60.54239 0,-90.81349 0.01,-5.69947 2.4023,-8.54955 6.8041,-8.6269 4.6237,-0.0812 7.0856,2.86428 7.0979,8.75782 0.037,17.63038 0.013,35.26091 0.014,53.39137 z" />
      <path id="Information:n" d="m 1106.1639,266 c 5e-4,-6.49377 -0.038,-12.48789 0.013,-18.48125 0.049,-5.84376 2.5763,-8.97395 7.0741,-8.91649 4.4793,0.0572 6.7756,3.07831 6.8627,9.03855 0.014,0.9572 0,1.91479 0,3.72824 2.2254,-1.93295 3.706,-3.78569 5.63,-4.78415 5.8134,-3.01679 11.5505,-7.20808 17.7641,-8.23288 18.3269,-3.02258 31.9267,8.87189 32.3802,27.55017 0.3596,14.80939 0.1468,29.634 0.09,44.45148 -0.019,4.8761 -2.9133,7.7969 -7.2136,7.6773 -4.0509,-0.11261 -6.6627,-2.93429 -6.6981,-7.68582 -0.087,-11.65393 -0.03,-23.30893 -0.033,-34.9635 -5e-4,-2.16437 0.019,-4.32931 -0.022,-6.49301 -0.27,-14.30179 -8.8915,-21.00444 -22.8101,-17.5619 -7.8043,1.93022 -13.4239,7.13499 -18.2002,13.25236 -0.8709,1.11563 -0.8443,3.10605 -0.8519,4.69446 -0.062,13.15271 -0.024,26.30585 -0.04,39.45886 -0.01,6.39966 -2.2779,9.35819 -7.0581,9.29852 -4.6003,-0.0574 -6.8756,-3.18283 -6.8836,-9.57446 -0.018,-13.9855 -0.01,-27.97098 -0.01,-42.45648 z" />
      <path id="Information:f" d="m 1238.562,218.12482 c -16.9543,-1.41857 -19.6277,1.10354 -19.4762,17.92016 0.01,0.81301 0,1.62615 0,3.13625 5.6244,0 11.0409,-0.0648 16.4544,0.0365 1.7996,0.0337 4.1834,-0.12077 5.247,0.90389 1.5717,1.51391 3.4721,4.46699 2.9259,5.96766 -0.7584,2.08345 -3.5277,4.57634 -5.6579,4.80205 -6.065,0.64263 -12.2421,0.22563 -18.7299,0.22563 -0.091,1.95681 -0.2286,3.56305 -0.2301,5.16944 -0.016,17.32235 0,34.64474 -0.012,51.9671 0,6.84586 -2.1994,9.85217 -7.0961,9.77783 -4.6013,-0.0698 -6.8511,-3.18173 -6.8565,-9.59857 -0.014,-17.32239 -0.01,-34.64475 -0.01,-51.96713 0,-1.62267 0,-3.24532 0,-5.35393 -3.2274,0 -6.0136,0.0355 -8.7984,-0.009 -3.5874,-0.0571 -5.7309,-2.1363 -5.9827,-5.47541 -0.2809,-3.72252 2.0657,-5.92965 5.6799,-6.30663 2.7911,-0.29112 5.6366,-0.0581 8.6731,-0.0581 0.4251,-5.61915 0.3778,-11.11443 1.3263,-16.43213 3.3711,-18.9001 22.5129,-22.52068 35.6632,-15.34574 1.6214,0.88471 3.4631,4.28418 2.925,5.55188 -0.8977,2.11585 -3.6358,3.45081 -6.0507,5.08808 z" />
      <path id="Information:o" d="m 1322.6863,251.35959 c 9.8559,13.49844 10.8272,28.09314 5.9548,43.05105 -5.399,16.57438 -21.7162,26.02967 -40.3249,24.32404 -18.5028,-1.69595 -31.9497,-13.58453 -34.186,-31.34564 -0.8758,-6.95709 -0.7734,-14.37744 0.6601,-21.21433 2.9802,-14.21489 12.0641,-23.75859 26.3127,-26.99736 15.6969,-3.56796 30.156,-1.03267 41.5833,12.18224 m -54.4185,16.79364 c -0.3843,4.4602 -1.2929,8.94855 -1.0558,13.37543 0.7387,13.78256 9.9078,23.54626 22.4287,24.46368 13.3975,0.98163 24.1709,-6.58762 26.8683,-19.42697 0.8753,-4.16583 0.8433,-8.63147 0.5484,-12.91333 -0.8559,-12.42819 -9.2926,-21.33568 -21.1772,-22.83026 -13.0483,-1.64096 -22.864,4.32744 -27.6124,17.33145 z" />
      <path id="Information:r" d="m 1365.7373,263.37707 c -0.456,4.28348 -0.8439,8.22748 -0.8739,12.17426 -0.088,11.49615 0.063,22.99451 -0.07,34.48981 -0.075,6.51364 -6.0523,10.40097 -10.6584,6.81558 -1.7621,-1.37152 -3.0901,-4.42481 -3.1155,-6.7283 -0.2333,-21.15824 -0.1617,-42.32019 -0.1174,-63.48093 0.011,-5.09865 2.6134,-8.05069 6.7962,-8.05403 4.1883,-0.003 6.8742,2.97058 7.121,7.94235 0.066,1.32453 0.01,2.65509 0.01,4.88729 2.2892,-2.32897 3.9877,-4.20589 5.8414,-5.9143 5.187,-4.78028 11.1165,-7.86598 18.3921,-7.66427 4.4375,0.12301 7.0297,2.53784 7.047,6.68109 0.018,4.35658 -2.572,6.41051 -6.5904,6.52612 -9.7887,0.28166 -17.6736,4.1136 -23.7819,12.32533 z" />
      <path id="Information:m" d="m 1460.9581,283.0014 c -0.2257,-6.97702 0.1282,-13.53945 -0.8073,-19.91269 -1.5649,-10.66194 -10.0356,-14.9467 -21.4543,-11.53776 -9.008,2.68925 -15.4533,11.29729 -15.4533,20.63881 0,12.3269 0.024,24.65384 -0.01,36.98065 -0.017,6.03644 -2.3239,8.89584 -6.9911,8.86493 -4.5123,-0.0299 -6.906,-3.05103 -6.9169,-9.0412 -0.037,-20.32266 -0.031,-40.64545 0,-60.96814 0.01,-6.26318 2.5007,-9.50642 7.0773,-9.4438 4.4312,0.0607 6.6807,3.04368 6.8399,9.08307 0.02,0.77575 0,1.55249 0,4.20884 8.7926,-11.76561 19.3259,-16.01278 32.1674,-13.36166 8.064,1.6648 13.3913,6.98386 17.2217,14.58154 1.104,-1.37313 2.0853,-2.61284 3.0867,-3.83601 8.09,-9.88097 18.7753,-12.92693 30.8837,-10.86406 10.5664,1.80017 18.7711,11.58365 19.2834,23.78381 0.6842,16.29657 0.4186,32.63663 0.3783,48.95755 -0.011,4.35501 -2.9022,6.91904 -6.906,6.90281 -4.117,-0.0167 -6.792,-2.68808 -6.8526,-7.5243 -0.1441,-11.49221 -0.04,-22.98736 -0.071,-34.48126 -0.01,-3.16308 -0.026,-6.33294 -0.2297,-9.48746 -0.8328,-12.91238 -8.286,-18.31312 -21.0149,-15.30337 -9.0442,2.1385 -16.2597,11.22909 -16.2597,20.48523 -10e-5,12.3269 0.014,24.65381 -0.01,36.98068 -0.01,6.18875 -2.4815,9.37048 -7.16,9.328 -4.5658,-0.0414 -6.7853,-2.96325 -6.8003,-9.04815 -0.021,-8.49546 -0.01,-16.991 -0.01,-25.98606 z" />
      <path id="Information:a" d="m 1558.23,275.11911 c 8.9485,-3.99106 18.0813,-4.17072 27.2605,-4.07394 4.1372,0.0436 8.2751,0.007 12.3797,0.007 1.1064,-12.74908 -4.6934,-19.86954 -17.1204,-19.82771 -7.2006,0.0242 -14.4581,1.5386 -21.5675,2.98398 -3.9081,0.79451 -6.997,0.86732 -8.7813,-3.11869 -1.5304,-3.4187 0.3326,-6.4481 4.8876,-8.27519 11.1802,-4.48477 22.7086,-6.5107 34.6297,-3.90953 13.0734,2.8526 21.7914,13.11372 22.153,26.56627 0.4022,14.9693 0.225,29.95587 0.1804,44.93457 -0.014,4.83743 -2.5552,7.59601 -6.7031,7.61151 -4.4535,0.0167 -6.6023,-2.55878 -7.124,-6.7586 -0.1202,-0.96836 -0.1811,-1.94407 -0.3277,-3.56183 -6.8633,6.44378 -14.572,9.984 -23.3987,10.92532 -9.3686,0.99911 -17.9162,-0.69794 -24.6066,-7.96982 -7.6119,-8.27319 -8.8381,-27.07776 8.1384,-35.53372 m 0.7701,16.93832 c -0.4728,9.14759 2.8954,13.13669 12.0137,14.26892 10.2153,1.26853 19.1615,-2.12603 25.4499,-9.71835 2.6147,-3.15668 1.7936,-9.1589 2.6906,-14.85522 -10.358,0.51355 -19.3311,0.61276 -28.2189,1.53424 -4.9924,0.51764 -9.7168,2.57934 -11.9353,8.77041 z" />
      <path id="Information:t" d="m 1640.2471,275.99982 c 0,-8.45709 0,-16.41419 0,-24.85625 -3.5424,0 -6.6748,0.13484 -9.7853,-0.0692 -1.1736,-0.077 -3.0598,-0.73142 -3.2645,-1.48912 -0.3168,-1.17231 0.1014,-3.08391 0.9531,-3.9455 6.7884,-6.86797 13.7139,-13.60312 20.7157,-20.25441 0.8171,-0.77629 2.824,-1.45648 3.4502,-1.01233 0.9923,0.70392 1.7014,2.36635 1.7916,3.67421 0.2387,3.45834 0.081,6.94403 0.081,11.13881 5.6782,0 11.0993,-0.13905 16.5097,0.042 4.7047,0.15747 7.159,2.85283 6.5754,6.84568 -0.5236,3.58248 -2.8556,5.05122 -6.2845,5.06221 -5.3265,0.0171 -10.6528,0.005 -16.3039,0.005 -0.1766,1.21697 -0.4697,2.30545 -0.4721,3.39461 -0.031,13.82515 -0.067,27.65059 -10e-4,41.47551 0.041,8.52151 3.3119,11.3512 11.8607,10.4025 1.9764,-0.21936 4.0692,-1.36091 5.8431,-0.94556 2.3113,0.54123 5.4826,1.75912 6.1947,3.52728 0.678,1.68317 -0.6486,5.34769 -2.2763,6.58106 -6.8623,5.20016 -22.9947,4.53598 -29.156,-1.53379 -2.8509,-2.80829 -5.2438,-7.19873 -5.6801,-11.11309 -0.9728,-8.72922 -0.5847,-17.61008 -0.7513,-26.92917 z" />
      <g id="Information:i">
        <path d="m 1694.1016,251.13065 c 0.032,-2.47377 -0.2019,-4.5165 0.1518,-6.45185 0.7143,-3.90765 3.0927,-6.27107 7.255,-6.02604 4.0999,0.24136 6.4876,2.60417 6.5006,6.73135 0.069,21.95055 0.085,43.90166 -0.012,65.85197 -0.019,4.18552 -3.0471,6.836 -7.0119,6.79258 -4.0312,-0.0441 -6.8026,-2.87702 -6.841,-7.55033 -0.1067,-12.97012 -0.041,-25.94168 -0.043,-38.91266 -9e-4,-6.65179 -10e-5,-13.30358 -10e-5,-20.43502 z" />
        <path d="m 1697.4565,222.612 c -3.945,-2.32817 -5.5672,-5.80879 -4.1036,-9.4572 0.9594,-2.39105 3.7179,-5.19383 6.0523,-5.59557 2.5714,-0.44256 6.5826,0.87653 8.1159,2.85933 1.5429,1.9955 1.8544,6.23513 0.7615,8.58863 -0.9619,2.07154 -4.5382,3.05914 -7.1096,4.18274 -0.9037,0.39485 -2.2519,-0.22789 -3.7165,-0.57793 z" />
      </g>
      <path id="Information:o" d="m 1745.5745,313.50702 c -16.2428,-10.61048 -19.7149,-26.19153 -17.2705,-43.51276 2.1468,-15.21316 10.6529,-25.98778 25.8272,-30.50403 29.5357,-8.79054 55.3568,13.36718 51.4544,44.04758 -3.8118,29.96543 -31.4395,43.93295 -60.0111,29.96921 m -3.2997,-26.81754 c 5.0112,16.23947 19.2667,23.5102 34.2203,17.45356 12.0058,-4.86267 17.6561,-17.86399 14.5985,-33.59046 -2.3274,-11.97003 -11.5515,-19.71297 -23.8893,-20.0529 -12.2055,-0.33629 -22.2911,7.00478 -24.6761,18.95616 -1.0526,5.27457 -0.3279,10.90381 -0.2534,17.23364 z" />
      <path id="Information:n" d="m 1895,313.53134 c -2.723,3.22415 -5.5349,5.91586 -9.8494,3.93921 -4.0504,-1.85571 -4.1695,-5.521 -4.1463,-9.33762 0.078,-12.8219 0.1056,-25.64514 0.01,-38.46679 -0.1204,-15.90244 -11.2192,-23.65602 -25.787,-17.16886 -5.6783,2.52863 -10.2537,7.65573 -15.0701,11.89609 -0.9582,0.84363 -0.9918,3.03827 -1.0004,4.6124 -0.073,13.32153 -0.028,26.64368 -0.048,39.96561 -0.01,6.06921 -2.2132,8.96542 -6.7979,9.06216 -4.7063,0.0993 -7.1343,-3.01175 -7.1407,-9.31922 -0.021,-20.14944 -0.017,-40.29891 0,-60.44836 0.01,-6.39761 2.2809,-9.56813 6.8343,-9.65724 4.7571,-0.0931 7.0557,3.06923 7.1112,9.78648 0.01,0.66536 8e-4,1.33081 8e-4,2.91771 1.7342,-1.47958 3.0441,-2.52473 4.2733,-3.65755 7.2979,-6.72618 15.7014,-10.29354 25.8197,-9.80158 12.9133,0.62783 22.0588,8.79627 25.4408,23.00602 0.353,17.49442 0.353,34.84867 0.353,52.67154 z" />
    </g>
    <g id="Commons">
      <path id="Commons:C" d="m 1108.2881,422.83307 c -25.7671,2.63894 -38.0778,23.51028 -34.845,48.19705 4.2459,32.42383 33.0946,38.83579 56.1139,32.44894 4.2822,-1.18817 8.2604,-3.43603 12.4535,-4.9942 3.3225,-1.23468 6.3816,-0.69171 8.0549,2.76657 1.6276,3.36329 0.5312,6.24732 -2.5764,8.14237 -22.9519,13.99695 -53.8567,12.88397 -71.6941,-3.83359 -14.458,-13.5502 -18.5233,-30.84454 -16.2412,-49.71405 5.2864,-43.70917 47.8113,-54.98401 79.5065,-41.38699 2.7413,1.17602 5.4372,2.50424 8.0166,3.99957 3.2856,1.90488 4.7712,4.78159 2.9418,8.40405 -1.8473,3.65772 -4.954,3.68848 -8.5451,2.58673 -7.875,-2.41607 -15.7738,-4.80178 -23.776,-6.73056 -2.8114,-0.67764 -5.9535,0.0166 -9.4094,0.11411 z" />
      <path id="Commons:o" d="m 1173.1294,451.15991 c 11.3297,-12.80145 30.2624,-16.8858 46.427,-10.25024 14.7925,6.07236 23.6193,20.98507 22.9202,38.62307 -0.6083,15.34363 -5.9911,28.24094 -20.4139,35.18046 -14.1171,6.79248 -28.4249,6.13848 -41.8221,-2.50434 -7.7742,-5.01517 -12.3159,-12.50012 -14.4132,-21.40869 -3.3217,-14.10974 -1.8611,-27.42374 7.302,-39.64026 m 48.3439,6.88819 c -7.3344,-7.23581 -16.1326,-8.92676 -25.7425,-6.20759 -13.6267,3.85575 -19.982,17.13294 -16.778,34.31794 2.015,10.80783 10.3171,18.72564 20.8065,19.84341 12.203,1.30042 22.5643,-4.15784 26.4665,-14.9555 4.1005,-11.34574 3.6955,-22.50455 -4.7525,-32.99826 z" />
      <path id="Commons:m" d="m 1316.4603,442.43555 c 1.954,1.84823 3.7683,3.34829 5.2519,5.12466 1.3669,1.63681 2.3785,3.57034 3.6287,5.49997 1.7505,-2.09521 3.2471,-4.27509 5.1192,-6.06158 9.258,-8.83576 20.2931,-11.56104 32.2235,-7.30536 11.2611,4.01687 15.5908,13.85327 16.0585,24.87628 0.6565,15.47043 0.2843,30.98804 0.1914,46.48453 -0.027,4.51431 -3.0933,7.29446 -7.2942,7.04263 -4.4581,-0.26733 -6.4924,-2.98016 -6.595,-7.22223 -0.1047,-4.33017 -0.02,-8.66476 -0.028,-12.99744 -0.019,-10.16488 0.1643,-20.33545 -0.1157,-30.49322 -0.3776,-13.68942 -9.161,-19.69183 -22.339,-15.58591 -8.9061,2.77493 -15.1884,11.18595 -15.1892,20.33533 0,12.66473 0.056,25.32983 -0.031,37.99399 -0.039,5.6961 -3.4659,8.87518 -8.3408,7.87536 -4.4635,-0.91546 -5.5217,-4.24353 -5.5138,-8.26584 0.024,-11.83145 0.019,-23.66302 -0.01,-35.49447 -0.01,-2.49741 -0.066,-5 -0.2378,-7.49085 -0.9156,-13.29889 -9.0174,-18.85809 -21.8812,-15.0549 -9.1951,2.71857 -15.4249,11.02436 -15.4249,20.56516 -10e-5,12.33145 0.022,24.66293 -0.01,36.99429 -0.015,5.9296 -2.4122,8.87058 -7.0759,8.86209 -4.6898,-0.009 -6.864,-2.79376 -6.869,-8.94766 -0.017,-20.16358 -0.011,-40.32715 0,-60.49072 0,-6.9289 2.1437,-9.94953 6.9685,-9.89313 4.7355,0.0554 6.7958,3.00354 6.9952,9.99701 0.017,0.59683 0.076,1.19247 0.1306,2.02942 15.1299,-14.17014 26.807,-16.61469 40.3888,-8.37741 z" />
      <path id="Commons:m" d="m 1428.1665,441.01245 c 15.7501,-6.95795 29.244,-2.5751 37.4509,12.16516 1.2012,-1.47696 2.2946,-2.87558 3.4444,-4.22607 7.976,-9.36813 18.3303,-12.47019 30.0836,-10.48862 10.953,1.84662 19.2063,11.5061 19.7262,23.92587 0.682,16.29892 0.3984,32.64185 0.3491,48.96534 -0.013,4.33715 -2.913,6.82928 -6.9961,6.7724 -4.151,-0.0578 -6.7267,-2.67505 -6.7849,-7.5821 -0.1381,-11.66034 -0.037,-23.32333 -0.063,-34.9852 -0.01,-2.99719 -0.031,-5.9999 -0.2118,-8.99011 -0.7603,-12.55484 -7.6698,-17.81576 -20.1176,-15.3873 -9.5444,1.86203 -17.1414,11.06891 -17.1416,20.77338 -3e-4,12.66153 -0.039,25.32327 0.022,37.9845 0.018,3.71649 -1.2578,6.60223 -4.8407,7.89172 -4.8403,1.74201 -9.0797,-1.64361 -9.1191,-7.3241 -0.087,-12.49435 -0.023,-24.98968 -0.036,-37.48462 0,-2.165 0.036,-4.34005 -0.1464,-6.49328 -1.1037,-13.0112 -9.1101,-18.48187 -21.7499,-14.91763 -9.3346,2.63223 -15.8286,11.18005 -15.8287,20.83468 -2e-4,12.32834 0.024,24.65674 -0.012,36.98499 -0.017,5.97394 -2.3874,8.79748 -7.1267,8.69092 -4.421,-0.0994 -6.7685,-2.9513 -6.7818,-8.63993 -0.048,-20.32501 -0.031,-40.65014 -0.013,-60.97525 0.01,-6.53488 2.1663,-9.59448 6.747,-9.72717 4.8542,-0.14066 7.0654,2.83893 7.1843,9.68686 0.011,0.62344 0,1.24719 0,2.14285 4.0593,-3.30533 7.8355,-6.38 11.9603,-9.59729 z" />
      <path id="Commons:o" d="m 1543.3759,500.54159 c -7.776,-16.77243 -7.8343,-32.99844 2.6961,-48.14443 8.9397,-12.85801 26.995,-17.71186 43.6231,-12.69684 15.1151,4.55868 25.2556,17.43313 26.3346,33.46313 1.0805,16.05521 -2.5329,30.24588 -16.7743,39.71704 -15.6753,10.42462 -44.3616,8.53968 -55.8795,-12.3389 m 8.6671,-24.7824 c 0.01,1.99758 -0.082,4.00183 0.046,5.99176 1.0645,16.4736 14.2335,27.01974 30.0325,24.08947 10.5394,-1.95477 18.5201,-10.64929 19.8462,-21.62195 1.8373,-15.20062 -3.2398,-26.5455 -14.0022,-31.28787 -17.1037,-7.53674 -33.1602,2.2743 -35.9229,22.82859 z" />
      <path id="Commons:n" d="m 1649.7388,511.3277 c -0.8985,4.8551 -3.497,7.29474 -8.0828,6.70483 -4.8013,-0.61761 -5.8716,-4.06982 -5.8583,-8.36594 0.064,-20.65197 0.014,-41.30435 0.037,-61.95651 0.01,-6.0397 2.3199,-8.97821 6.8801,-8.94281 4.5216,0.0351 6.8565,3.00827 7.0608,8.97818 0.033,0.96027 0.097,1.9195 0.084,1.67691 6.8107,-3.49658 13.5186,-8.49103 21.0236,-10.48355 17.8409,-4.7366 33.1453,6.53513 34.1573,24.92142 0.859,15.61014 0.4527,31.29498 0.4154,46.94632 -0.011,4.72165 -2.8633,7.36325 -7.0451,7.32852 -4.1828,-0.0348 -6.7082,-2.65295 -6.7492,-7.54074 -0.1036,-12.32388 -0.038,-24.64911 -0.045,-36.97382 -8e-4,-1.49853 0.033,-3.00051 -0.052,-4.49511 -0.8974,-15.86695 -11.9455,-22.94763 -26.466,-16.18695 -5.2298,2.43496 -9.5244,7.02133 -13.9352,10.97262 -1.0872,0.97412 -1.3195,3.30264 -1.3325,5.01306 -0.1048,13.9895 -0.064,27.98007 -0.093,42.40357 z" />
      <path id="Commons:s" d="m 1724.9854,456.21121 c 3.5266,-12.1315 12.4869,-17.36847 23.6162,-17.79025 8.8097,-0.33383 17.7524,1.57629 26.5575,2.98196 3.7409,0.59723 6.4265,3.25418 5.2303,7.56699 -1.2388,4.46704 -4.5804,4.81525 -8.7306,4.1839 -6.8594,-1.04346 -13.7963,-1.88672 -20.7191,-2.05875 -2.9414,-0.0731 -6.5526,1.04608 -8.7235,2.93131 -2.1909,1.90252 -4.0988,5.45865 -4.0172,8.22818 0.064,2.19369 2.9236,5.39001 5.2383,6.23666 8.0887,2.95853 16.5617,4.84729 24.7309,7.60959 7.4121,2.50623 13.2938,6.94775 14.9105,15.26492 2.3821,12.25608 -3.6302,22.16596 -16.2978,25.80463 -13.7611,3.9527 -27.0153,1.60937 -39.661,-4.70777 -3.4724,-1.73461 -4.1692,-4.84399 -2.6782,-8.04302 1.544,-3.31299 4.5158,-4.2869 7.9892,-2.82883 7.6201,3.19867 15.502,5.17194 23.7932,4.3215 3.2348,-0.33179 6.9887,-0.81259 9.3773,-2.6741 2.2541,-1.75656 4.0197,-5.3888 4.097,-8.24744 0.051,-1.88363 -2.9193,-4.74542 -5.1453,-5.61896 -5.6943,-2.2348 -11.7397,-3.56683 -17.6229,-5.33251 -2.8588,-0.85792 -5.735,-1.71799 -8.4893,-2.85337 -11.358,-4.68179 -15.5752,-12.43265 -13.4555,-24.97464 z" />
    </g>
  </g>
</svg>